<svg width="320" height="13" viewBox="0 0 320 13" fill="none" xmlns="http://www.w3.org/2000/svg">
<g clip-path="url(#clip0_275_3505)">
<rect x="36.4756" y="-12.111" width="24.2378" height="24.2378" rx="12.1189" fill="white"/>
<rect x="-4" y="-12.111" width="24.2378" height="24.2378" rx="12.1189" fill="white"/>
<rect x="117.427" y="-12.111" width="24.2378" height="24.2378" rx="12.1189" fill="white"/>
<rect x="198.378" y="-12.111" width="24.2378" height="24.2378" rx="12.1189" fill="white"/>
<rect x="76.9512" y="-12.111" width="24.2378" height="24.2378" rx="12.1189" fill="white"/>
<rect x="157.902" y="-12.111" width="24.2378" height="24.2378" rx="12.1189" fill="white"/>
<rect x="56.7134" y="-12.111" width="24.2378" height="24.2378" rx="12.1189" fill="white"/>
<rect x="238.854" y="-12.111" width="24.2378" height="24.2378" rx="12.1189" fill="white"/>
<rect x="299.567" y="-12.111" width="24.2378" height="24.2378" rx="12.1189" fill="white"/>
<rect x="16.2378" y="-12.111" width="24.2378" height="24.2378" rx="12.1189" fill="white"/>
<rect x="137.665" y="-12.111" width="24.2378" height="24.2378" rx="12.1189" fill="white"/>
<rect x="218.616" y="-12.111" width="24.2378" height="24.2378" rx="12.1189" fill="white"/>
<rect x="279.329" y="-12.111" width="24.2378" height="24.2378" rx="12.1189" fill="white"/>
<rect x="97.189" y="-12.111" width="24.2378" height="24.2378" rx="12.1189" fill="white"/>
<rect x="178.14" y="-12.111" width="24.2378" height="24.2378" rx="12.1189" fill="white"/>
<rect x="259.091" y="-12.111" width="24.2378" height="24.2378" rx="12.1189" fill="white"/>
</g>
<defs>
<clipPath id="clip0_275_3505">
<rect width="320" height="13" fill="white"/>
</clipPath>
</defs>
</svg>
